# xmcd
# Copyright (C) 1995-1998 Ti Kan
#
# Track frame offsets:
#       150
#       16424
#       35326
#       51929
#       69642
#       91515
#       109432
#       128616
#       147036
#       162936
#       183173
#       199817
#
# Disc length: 3364 seconds
#
# Revision: 0
# Processed by: cddbd v1.5.2PL0 Copyright (c) Steve Scherf et al.
# Submitted via: CD-Transfer v1.0
#
DISCID=9c0d220c
DTITLE=John and John - Summerzyt
DYEAR=2007
DGENRE=
TTITLE0=Ferie
TTITLE1=Adiós Muchachos
TTITLE2=Es Isch Summerzyt
TTITLE3=I Bi So, Wien I Bi
TTITLE4=Fründe
TTITLE5=Es Gieng Üs Besser
TTITLE6=Gi Mer Chlei
TTITLE7=Fritz and Franz
TTITLE8=Sprütztuur
TTITLE9=Gsehsch Guet Uus I Mym Schört
TTITLE10=Only You!
TTITLE11=Vermisse Di - Häue Stärn
EXTD=
EXTT0=
EXTT1=
EXTT2=
EXTT3=
EXTT4=
EXTT5=
EXTT6=
EXTT7=
EXTT8=
EXTT9=
EXTT10=
EXTT11=
PLAYORDER=
